<?xml version="1.0" standalone="no"?>
<!DOCTYPE svg PUBLIC "-//W3C//DTD SVG 20010904//EN"
 "http://www.w3.org/TR/2001/REC-SVG-20010904/DTD/svg10.dtd">
<svg version="1.0" xmlns="http://www.w3.org/2000/svg"
 width="700.000000pt" height="700.000000pt" viewBox="0 0 700.000000 700.000000"
 preserveAspectRatio="xMidYMid meet">
<metadata>
Created by potrace 1.14, written by Peter Selinger 2001-2017
</metadata>
<g transform="translate(0.000000,700.000000) scale(0.100000,-0.100000)"
fill="#000000" stroke="none">
<path d="M1747 6904 c-1 -1 -47 -4 -102 -7 -495 -29 -948 -289 -1239 -710
-107 -156 -209 -393 -242 -562 -2 -11 -6 -31 -9 -45 -10 -53 -14 -85 -21 -164
-9 -103 -9 -3725 0 -3826 56 -637 492 -1191 1096 -1393 99 -34 190 -56 305
-74 68 -11 3914 -10 3990 1 33 4 110 21 172 37 568 144 1022 594 1168 1159 14
52 27 111 30 130 3 19 10 60 15 90 11 65 8 3903 -3 3970 -15 88 -67 278 -96
354 -156 391 -440 698 -814 878 -43 21 -80 38 -83 38 -3 0 -20 6 -37 14 -105
48 -359 101 -502 106 -65 2 -3626 6 -3628 4z m3454 -1237 c30 -16 52 -38 69
-68 l25 -44 -1 -2095 c0 -2019 -1 -2096 -18 -2130 -42 -78 -87 -99 -208 -97
-85 2 -99 5 -136 29 -23 16 -49 43 -59 60 -17 31 -18 140 -18 2139 l0 2105 28
43 c39 59 90 81 193 81 66 0 89 -4 125 -23z m-1541 -1207 c22 -11 52 -39 67
-62 l28 -42 1 -1480 c0 -863 -4 -1496 -9 -1518 -12 -47 -53 -93 -100 -113 -43
-18 -169 -20 -218 -4 -43 15 -88 55 -105 96 -12 27 -14 279 -14 1517 0 1025 3
1493 11 1513 14 37 57 82 94 99 49 22 198 18 245 -6z m-1527 -1120 c21 -14 47
-45 59 -69 21 -43 21 -45 21 -971 -1 -886 -1 -930 -19 -966 -11 -21 -36 -52
-57 -68 -38 -30 -42 -31 -145 -31 -103 0 -108 1 -146 30 -80 61 -76 -5 -76
1035 0 882 1 927 19 966 19 42 69 87 106 97 11 3 61 5 111 4 78 -2 95 -5 127
-27z"/>
</g>
</svg>
